<?xml version="1.0" standalone="no"?>
<!DOCTYPE svg PUBLIC "-//W3C//DTD SVG 20010904//EN"
 "http://www.w3.org/TR/2001/REC-SVG-20010904/DTD/svg10.dtd">
<svg version="1.0" xmlns="http://www.w3.org/2000/svg"
 width="500.000000pt" height="500.000000pt" viewBox="0 0 500.000000 500.000000"
 preserveAspectRatio="xMidYMid meet">

<g transform="translate(0.000000,500.000000) scale(0.100000,-0.100000)"
fill="#000000" stroke="none">
<path d="M2464 2755 c-3 -14 -4 -41 -2 -60 l4 -35 -97 0 -97 0 -51 -46 -51
-46 0 -87 c0 -80 2 -89 25 -111 14 -13 25 -29 25 -35 0 -7 22 -31 49 -53 50
-42 50 -42 133 -42 57 1 89 5 102 15 25 19 36 19 36 0 0 -11 12 -15 45 -15
l45 0 0 225 0 225 -25 0 c-23 0 -25 4 -25 45 l0 45 -55 0 c-50 0 -55 -2 -61
-25z m-157 -310 c12 -9 20 -7 39 12 27 27 108 33 117 9 9 -24 -37 -46 -94 -46
-70 0 -90 18 -87 79 l1 46 4 -44 c3 -25 11 -50 20 -56z"/>
<path d="M3607 2773 c-4 -3 -7 -109 -7 -235 l0 -228 25 0 c22 0 25 -4 25 -35
l0 -35 55 0 55 0 0 60 0 60 38 0 c34 0 46 -7 96 -60 l57 -60 60 0 c68 0 75 11
30 54 -17 17 -27 34 -24 43 4 9 -17 38 -54 76 -72 75 -102 116 -47 65 l40 -38
47 48 c62 63 62 82 1 82 l-45 0 20 26 c12 15 21 35 21 45 0 16 -8 19 -52 19
-50 0 -52 -1 -105 -60 -49 -54 -59 -60 -94 -60 l-39 0 0 120 0 120 -48 0 c-27
0 -52 -3 -55 -7z m110 -405 c-2 -18 -4 -6 -4 27 0 33 2 48 4 33 2 -15 2 -42 0
-60z"/>
<path d="M1394 2725 c1 -36 4 -40 29 -43 24 -3 27 -8 27 -38 0 -19 5 -34 10
-34 6 0 10 20 10 45 0 45 0 45 -34 45 -32 0 -35 3 -39 33 -4 26 -4 24 -3 -8z"/>
<path d="M1590 2510 l0 -180 -60 0 c-33 0 -60 -4 -60 -10 0 -5 14 -10 30 -10
28 0 30 -3 30 -35 l0 -35 50 0 50 0 0 225 c0 218 -1 225 -20 225 -19 0 -20 -7
-20 -180z"/>
<path d="M3720 2620 c0 -63 2 -70 20 -70 18 0 20 7 20 70 0 63 -2 70 -20 70
-18 0 -20 -7 -20 -70z"/>
<path d="M819 2633 l-34 -38 35 30 c34 29 33 28 -5 -13 -37 -40 -65 -57 -49
-29 6 9 4 9 -8 -1 -21 -17 -12 -47 20 -72 l25 -20 51 47 c28 27 52 53 54 59 2
6 -11 23 -27 37 -16 13 -27 28 -24 31 4 3 4 6 2 6 -3 0 -21 -17 -40 -37z"/>
<path d="M4098 2637 c18 -18 30 -36 27 -39 -3 -3 11 -20 32 -37 26 -22 40 -28
48 -20 7 8 -9 28 -55 70 -70 63 -105 81 -52 26z"/>
<path d="M2728 2624 c-65 -54 -68 -60 -68 -150 0 -80 1 -83 30 -104 17 -12 30
-27 30 -35 0 -7 22 -32 49 -54 l49 -41 146 0 146 0 0 40 c0 38 -1 40 -31 40
-24 0 -30 3 -25 16 3 9 6 20 6 25 0 5 18 9 40 9 l40 0 0 53 c0 44 -4 58 -25
77 -14 13 -25 34 -25 46 0 15 -18 38 -52 68 l-53 46 -106 0 -107 0 -44 -36z
m227 -88 c17 -1 -16 -4 -72 -4 -57 -1 -103 1 -103 6 0 6 105 6 175 -2z m-10
-119 l120 -3 -124 -2 c-104 -2 -127 1 -143 15 -10 9 -18 21 -18 26 0 6 10 1
23 -11 20 -19 36 -22 142 -25z"/>
<path d="M3203 2611 l-53 -48 0 -84 c0 -93 -8 -78 98 -186 l52 -53 135 0 135
0 0 45 c0 41 -2 45 -25 45 -23 0 -25 4 -25 45 l0 45 -108 0 c-132 0 -153 10
-150 73 l1 42 4 -36 c2 -20 12 -44 22 -53 16 -15 19 -14 41 9 22 24 29 25 132
25 l108 0 0 45 c0 41 -2 45 -25 45 -23 0 -25 4 -25 45 l0 45 -132 0 -133 0
-52 -49z"/>
<path d="M952 2408 l-2 -228 30 0 c28 0 30 -3 30 -35 l0 -35 55 0 55 0 0 65 0
65 100 0 100 0 42 38 c59 51 58 48 58 128 0 62 -3 73 -25 94 l-25 23 0 -55 c0
-54 -1 -56 -49 -96 l-50 -42 -95 0 -95 0 -3 -62 -3 -63 -57 -3 -58 -3 -3 218
-2 218 -3 -227z"/>
<path d="M2090 2421 l0 -149 -42 -36 -42 -36 -147 0 -148 0 -4 33 c-3 28 -4
26 -5 -10 -2 -41 -1 -43 28 -43 28 0 30 -3 30 -35 l0 -35 146 0 145 0 40 32
39 31 0 199 c0 191 -1 198 -20 198 -19 0 -20 -7 -20 -149z"/>
<path d="M1092 2548 c-7 -7 -12 -36 -12 -65 0 -61 13 -68 56 -28 20 19 38 25
70 25 41 0 44 2 44 28 0 42 -17 52 -85 52 -34 0 -66 -5 -73 -12z m28 -2 c0 -3
-4 -8 -10 -11 -5 -3 -10 -1 -10 4 0 6 5 11 10 11 6 0 10 -2 10 -4z"/>
<path d="M1802 2548 c-19 -19 -15 -82 6 -101 17 -16 20 -15 42 8 19 20 33 25
72 25 l48 0 0 40 0 40 -78 0 c-47 0 -83 -5 -90 -12z"/>
<path d="M600 2532 c0 -5 13 -21 30 -37 16 -15 28 -31 27 -35 -3 -8 189 -190
201 -190 5 0 19 11 32 25 l24 26 -32 31 c-30 30 -32 31 -50 15 -18 -17 -23
-14 -121 78 -102 95 -111 102 -111 87z"/>
<path d="M4238 2447 c-47 -45 -61 -61 -33 -34 28 26 54 47 58 47 4 0 -26 -31
-65 -69 l-72 -68 26 -31 26 -31 104 97 c56 53 101 99 99 102 -2 3 -16 19 -31
37 l-29 32 -83 -82z"/>
<path d="M1670 2402 c0 -5 12 -20 28 -35 15 -14 35 -37 45 -52 18 -25 20 -26
120 -23 l102 3 3 28 c3 26 2 27 -17 18 -11 -6 -58 -11 -104 -11 -73 0 -86 3
-103 21 -26 29 -74 62 -74 51z"/>
<path d="M4070 2392 c0 -5 11 -19 25 -32 21 -20 27 -21 38 -10 9 9 9 11 0 6
-7 -4 -19 4 -29 19 -16 24 -34 33 -34 17z"/>
</g>
</svg>
