<?xml version="1.0" standalone="no"?>
<!DOCTYPE svg PUBLIC "-//W3C//DTD SVG 20010904//EN"
 "http://www.w3.org/TR/2001/REC-SVG-20010904/DTD/svg10.dtd">
<svg version="1.0" xmlns="http://www.w3.org/2000/svg"
 width="300.000000pt" height="300.000000pt" viewBox="0 0 300.000000 300.000000"
 preserveAspectRatio="xMidYMid meet">
<metadata>
Created by potrace 1.10, written by Peter Selinger 2001-2011
</metadata>
<g transform="translate(0.000000,300.000000) scale(0.100000,-0.100000)"
fill="#000000" stroke="none">
<path d="M884 1669 c28 -4 53 -6 57 -3 4 2 10 -2 12 -8 3 -8 6 -6 6 5 1 15 -8
17 -61 16 l-63 -1 49 -9z"/>
<path d="M1479 1658 c-1 -7 0 -26 1 -42 l2 -28 -52 7 c-46 6 -55 4 -91 -20
-38 -27 -39 -30 -39 -85 0 -42 4 -59 15 -64 8 -3 15 -12 15 -19 0 -8 15 -26
34 -41 38 -28 112 -36 134 -14 9 9 15 9 24 0 7 -7 22 -12 34 -12 21 0 22 3 21
140 0 109 -3 140 -14 140 -10 0 -13 -25 -13 -107 0 -128 -6 -143 -50 -126 -20
8 -32 8 -36 1 -4 -6 -26 -8 -56 -5 -60 7 -77 16 -54 29 15 8 15 12 -4 35 -44
56 -7 113 74 115 44 0 76 17 76 39 0 5 9 9 19 9 19 0 31 18 31 46 0 18 -70 20
-71 2z"/>
<path d="M2160 1530 c0 -135 7 -164 29 -122 6 11 6 33 2 54 -13 56 -2 137 20
149 11 5 19 21 19 34 0 22 -4 25 -35 25 l-35 0 0 -140z"/>
<path d="M831 1638 c-1 -21 4 -28 18 -28 20 0 26 -27 34 -155 2 -27 4 -2 5 58
l2 107 -24 0 c-18 0 -26 7 -29 23 -4 19 -4 18 -6 -5z"/>
<path d="M423 1590 c-35 -33 -63 -63 -63 -68 0 -13 97 -119 131 -143 29 -21
31 -21 44 -3 12 17 11 22 -6 39 -17 17 -21 18 -29 5 -8 -12 -18 -6 -60 35 -27
27 -50 54 -50 59 0 21 91 96 117 96 25 0 26 0 8 20 -10 11 -21 20 -24 20 -3
-1 -34 -27 -68 -60z"/>
<path d="M2453 1624 c-16 -26 -16 -27 6 -45 13 -11 19 -19 15 -19 -13 -1 36
-40 49 -40 6 0 -7 19 -28 41 l-40 42 29 -7 c34 -8 86 -43 86 -57 0 -5 10 -9
23 -9 18 0 11 11 -43 60 -36 32 -68 59 -72 60 -4 0 -15 -12 -25 -26z"/>
<path d="M948 1508 l-3 -113 -32 3 c-20 2 -33 -1 -33 -8 0 -6 8 -10 17 -8 12
2 18 -4 18 -17 0 -15 8 -21 33 -23 l32 -3 0 140 c0 117 -2 141 -15 141 -12 0
-15 -22 -17 -112z"/>
<path d="M2230 1575 c0 -33 4 -45 15 -45 11 0 15 12 15 45 0 33 -4 45 -15 45
-11 0 -15 -12 -15 -45z"/>
<path d="M576 1594 c-3 -9 -6 -76 -6 -150 0 -127 1 -134 20 -134 14 0 19 -6
17 -22 -2 -18 3 -22 28 -22 28 -1 30 2 35 39 l5 39 52 -3 c44 -2 58 2 88 24
32 25 35 32 35 77 0 31 -6 55 -15 64 -13 14 -15 11 -15 -23 0 -30 -7 -46 -29
-67 -27 -25 -33 -27 -91 -23 l-61 5 2 -31 c4 -43 -5 -55 -36 -49 l-25 4 0 134
c0 122 2 134 18 134 10 0 23 -5 30 -12 9 -9 15 -9 24 0 7 7 35 12 63 12 42 0
55 -5 83 -31 17 -16 32 -25 32 -19 0 5 -15 24 -32 40 -29 26 -40 29 -86 28
-35 -1 -56 -6 -61 -16 -7 -12 -9 -12 -14 2 -8 21 -53 21 -61 0z"/>
<path d="M1038 1578 c-22 -19 -26 -25 -11 -18 12 5 25 15 28 20 3 6 48 10 100
10 l93 0 1 -119 2 -119 -30 -21 c-21 -15 -39 -20 -67 -17 -22 3 -58 5 -81 5
-35 1 -42 5 -46 24 -4 19 -4 18 -6 -5 -1 -22 4 -28 19 -28 14 0 19 -6 17 -21
-2 -21 2 -21 87 -20 134 3 136 5 136 152 0 67 -4 119 -9 119 -6 0 -11 15 -13
33 l-3 32 -92 1 c-88 1 -94 0 -125 -28z"/>
<path d="M1685 1593 c-16 -3 -42 -14 -57 -25 -25 -17 -28 -25 -28 -78 0 -55 2
-60 45 -104 l45 -47 87 3 c79 3 87 5 88 24 1 19 -4 20 -94 20 -53 -1 -105 3
-116 7 -19 8 -19 9 -2 19 17 9 18 11 1 29 -47 52 -8 119 71 119 35 0 49 -6 73
-30 17 -16 38 -30 46 -30 18 0 20 -8 7 -28 -6 -10 -29 -13 -84 -10 -41 1 -73
0 -70 -4 2 -5 35 -8 74 -8 55 0 69 -3 69 -15 0 -8 9 -15 20 -15 17 0 20 7 20
39 0 25 -5 41 -15 45 -8 3 -15 13 -15 23 0 9 -12 30 -27 45 -27 29 -55 33
-138 21z"/>
<path d="M1965 1593 c-34 -8 -75 -54 -75 -85 0 -35 20 -29 38 11 8 17 24 32
40 36 29 8 95 7 125 -1 13 -4 17 1 17 19 0 23 -3 24 -62 25 -35 0 -72 -2 -83
-5z"/>
<path d="M2297 1554 c-37 -36 -46 -49 -36 -58 8 -8 13 -8 16 2 3 6 11 12 19
12 8 0 14 4 14 8 0 4 14 16 30 25 17 10 30 15 30 11 0 -4 9 1 20 11 28 26 25
35 -12 35 -25 0 -44 -11 -81 -46z"/>
<path d="M482 1559 c-27 -25 -31 -33 -22 -45 17 -19 23 -18 59 14 31 27 31 29
14 44 -17 15 -20 15 -51 -13z"/>
<path d="M1125 1531 c-42 -5 -50 -9 -53 -29 -5 -36 15 -52 62 -51 l41 2 -39 6
c-35 5 -37 8 -23 20 9 7 28 11 42 9 22 -5 25 -2 25 23 0 16 -1 28 -2 27 -2 0
-25 -4 -53 -7z"/>
<path d="M2046 1531 c-76 -7 -102 -25 -76 -55 11 -15 15 -15 30 -1 11 10 37
15 78 15 59 0 62 1 62 25 0 14 -5 24 -12 23 -7 -1 -44 -4 -82 -7z"/>
<path d="M2357 1522 c-11 -12 -13 -22 -7 -28 7 -7 7 -20 2 -34 -6 -15 -11 -19
-16 -12 -14 23 -24 12 -13 -13 12 -26 37 -42 37 -24 0 6 8 6 21 -1 32 -18 36
-2 7 27 l-26 25 34 30 c19 17 34 34 34 39 0 16 -57 9 -73 -9z"/>
<path d="M644 1521 c-9 -9 -4 -71 6 -71 6 0 19 9 30 20 23 23 50 26 69 8 11
-11 13 -10 7 5 -3 10 -6 25 -6 33 0 12 -11 14 -51 12 -28 -2 -53 -5 -55 -7z"/>
<path d="M1380 1501 c0 -35 13 -47 30 -26 7 8 26 15 42 15 23 0 29 4 26 18 -2
13 -15 18 -51 20 -46 3 -47 3 -47 -27z"/>
<path d="M2535 1453 c-54 -60 -57 -66 -41 -81 15 -15 20 -12 76 43 58 59 59
60 41 82 l-18 21 -58 -65z"/>
<path d="M1663 1503 c4 -3 2 -12 -4 -20 -20 -24 17 -53 65 -52 l41 2 -43 6
c-95 16 -78 53 24 52 47 0 64 3 54 9 -17 11 -147 14 -137 3z"/>
<path d="M2474 1476 c-38 -34 -39 -35 -20 -53 13 -13 17 -14 14 -3 -2 7 8 27
24 43 24 26 35 47 25 47 -2 0 -21 -15 -43 -34z"/>
<path d="M1469 1464 c-9 -11 -26 -15 -54 -12 -36 3 -41 1 -32 -13 16 -25 71
-22 96 5 13 13 18 27 13 30 -5 3 -16 -1 -23 -10z"/>
<path d="M1905 1458 c-8 -20 15 -61 52 -92 27 -23 40 -26 107 -26 l76 0 0 30
c0 30 -21 42 -35 20 -8 -13 -106 -13 -140 0 -25 9 -25 11 -9 27 13 14 14 18 3
21 -8 3 -22 11 -31 20 -15 13 -18 13 -23 0z"/>
<path d="M2230 1436 c0 -36 -10 -55 -26 -49 -10 4 -14 -3 -14 -21 0 -23 4 -26
36 -26 35 0 35 1 32 38 -4 54 25 55 77 2 30 -31 47 -40 72 -40 20 0 33 5 33
13 0 22 -23 37 -58 37 -24 0 -46 10 -76 35 -51 42 -76 45 -76 11z"/>
<path d="M1000 1443 c0 -5 13 -23 29 -41 27 -29 35 -32 90 -32 51 0 61 3 61
18 0 14 -8 17 -55 14 -48 -3 -61 0 -90 23 -19 14 -35 22 -35 18z"/>
<path d="M1982 1438 c3 -7 27 -15 54 -18 27 -3 55 -9 62 -13 8 -6 12 -1 12 17
0 25 -2 26 -66 26 -48 0 -65 -3 -62 -12z"/>
</g>
</svg>
