<?xml version="1.0" standalone="no"?>
<!DOCTYPE svg PUBLIC "-//W3C//DTD SVG 20010904//EN"
 "http://www.w3.org/TR/2001/REC-SVG-20010904/DTD/svg10.dtd">
<svg version="1.0" xmlns="http://www.w3.org/2000/svg"
 width="500.000000pt" height="500.000000pt" viewBox="0 0 500.000000 500.000000"
 preserveAspectRatio="xMidYMid meet">
<metadata>
Created by potrace 1.10, written by Peter Selinger 2001-2011
</metadata>
<g transform="translate(0.000000,500.000000) scale(0.100000,-0.100000)"
fill="#ffffff" stroke="none">
<path d="M1260 3010 c0 -5 32 -9 76 -9 41 1 78 -2 81 -5 9 -9 17 -359 9 -390
-4 -17 -13 -26 -27 -26 -12 0 -17 4 -13 11 4 7 -4 10 -22 7 l-29 -3 -1 115 c0
63 -1 139 -2 168 l-2 52 -34 0 c-32 0 -35 3 -39 33 -3 28 -4 26 -5 -10 -2 -40
0 -43 23 -43 21 0 25 -5 25 -30 0 -16 5 -30 10 -30 7 0 10 -34 9 -92 -4 -170
-2 -178 25 -178 20 0 25 -6 28 -31 3 -30 5 -32 51 -33 l47 -1 0 208 c0 200 -1
207 -20 207 -16 0 -20 6 -19 28 4 64 6 62 -86 62 -49 0 -85 -4 -85 -10z"/>
<path d="M2214 2984 c-4 -14 -4 -40 -1 -59 l6 -34 -88 1 -88 2 -46 -39 -47
-39 0 -82 c0 -76 2 -84 25 -102 14 -11 25 -26 25 -33 0 -8 20 -29 44 -46 40
-30 49 -33 118 -33 50 0 81 5 94 15 25 19 34 19 34 -2 0 -14 8 -18 35 -17 l36
1 0 204 c0 183 -2 204 -17 204 -14 0 -16 -17 -15 -152 2 -173 -4 -193 -57
-193 -18 0 -42 5 -52 10 -13 7 -21 7 -25 0 -3 -5 -41 -10 -84 -10 l-78 0 -34
42 -34 43 32 -23 c18 -13 35 -27 38 -32 4 -6 16 -10 28 -10 17 0 19 2 7 9 -8
6 -18 7 -22 5 -4 -3 -8 1 -8 9 0 8 -14 26 -31 39 -30 26 -48 81 -28 93 5 4 9
12 9 18 0 7 -4 6 -11 -3 -8 -12 -9 -9 -4 10 4 14 21 39 39 56 32 31 36 32 117
30 68 -2 86 1 101 16 10 10 14 18 8 18 -5 0 -10 11 -10 25 0 15 5 24 13 23 6
-2 11 5 9 15 -2 11 4 17 17 17 15 0 21 -9 26 -41 9 -52 25 -34 25 29 l0 42
-50 0 c-45 0 -50 -2 -56 -26z"/>
<path d="M3240 2795 l0 -215 26 0 c23 0 25 -3 22 -31 l-3 -32 49 0 50 0 -3 57
-2 56 31 0 c25 0 44 -12 89 -55 55 -52 61 -55 109 -55 57 0 67 14 32 45 -15
14 -34 18 -73 16 -51 -2 -53 0 -109 54 -37 36 -65 55 -81 55 -22 0 -25 -5 -29
-50 -3 -28 -8 -53 -11 -56 -3 -3 -25 -3 -49 1 -24 5 -37 10 -30 12 6 3 10 9 6
14 -3 5 2 9 10 9 19 0 21 16 3 23 -11 4 -13 34 -10 139 6 195 5 192 16 200 20
13 36 -4 33 -36 -1 -22 2 -33 11 -33 9 0 13 16 13 49 l0 48 -50 0 -50 0 0
-215z"/>
<path d="M693 2938 c-51 -43 -153 -149 -153 -159 0 -3 11 -16 25 -29 14 -13
25 -28 25 -34 0 -6 41 -49 91 -95 l91 -84 26 27 27 26 -32 29 -32 29 -17 -26
-17 -26 -84 89 c-45 50 -83 93 -83 97 0 5 6 8 14 8 8 0 18 9 21 20 3 11 10 20
14 20 4 0 36 27 71 60 35 33 65 58 67 56 4 -4 10 -30 12 -49 1 -9 31 18 31 27
0 3 -11 16 -25 30 l-25 25 -47 -41z m87 -342 c0 -3 -4 -8 -10 -11 -5 -3 -10
-1 -10 4 0 6 5 11 10 11 6 0 10 -2 10 -4z"/>
<path d="M3688 2946 c-35 -44 -35 -50 2 -76 17 -12 28 -25 26 -29 -3 -4 10
-22 28 -40 28 -27 34 -30 40 -16 4 10 -2 19 -17 25 -12 5 -17 9 -12 10 7 0 7
3 0 8 -29 22 -88 93 -75 90 8 -2 21 -10 28 -18 11 -13 12 -12 3 6 -11 23 -6
34 16 34 9 0 11 -5 7 -12 -4 -7 -4 -10 1 -6 10 9 50 -18 50 -35 1 -6 6 -11 12
-10 6 1 30 -18 52 -42 40 -43 61 -56 61 -36 0 6 -32 38 -72 73 -39 35 -82 73
-95 86 -13 12 -25 22 -26 22 -1 0 -14 -16 -29 -34z"/>
<path d="M3350 2866 c0 -52 3 -66 15 -66 12 0 15 13 15 55 0 30 0 58 1 63 0 4
-7 8 -15 10 -13 3 -16 -8 -16 -62z"/>
<path d="M870 2896 c0 -9 -4 -16 -10 -16 -6 0 -10 -77 -10 -211 l0 -211 30 4
c28 4 30 3 30 -29 0 -33 0 -33 50 -33 l50 0 0 60 0 60 91 0 c89 0 92 1 131 34
40 35 40 35 40 107 0 60 -3 75 -22 93 l-21 21 2 -50 c3 -48 2 -51 -46 -97
l-50 -48 -77 0 c-45 0 -78 4 -78 10 0 6 -4 10 -9 10 -6 0 -9 -26 -8 -57 l2
-58 -54 -3 c-46 -3 -53 -1 -47 13 3 9 6 99 6 200 l0 183 27 6 c25 7 36 0 46
-28 2 -5 9 -6 15 -2 7 4 9 13 5 19 -4 7 -8 17 -8 22 0 6 -19 11 -42 13 -34 2
-43 0 -43 -12z m369 -288 c-11 -26 -68 -70 -80 -62 -9 5 23 41 60 66 33 22 33
22 20 -4z m-286 -145 c-7 -2 -19 -2 -25 0 -7 3 -2 5 12 5 14 0 19 -2 13 -5z"/>
<path d="M1000 2897 c0 -5 -4 -6 -9 -2 -5 3 -12 1 -16 -5 -4 -6 24 -8 79 -5
73 4 88 2 103 -13 10 -10 31 -26 46 -35 15 -10 26 -24 25 -32 -2 -7 2 -14 7
-15 13 -1 17 22 7 35 -4 6 -28 28 -54 49 -46 36 -49 37 -117 34 -39 -2 -71 -7
-71 -11z"/>
<path d="M1550 2861 c-36 -34 -39 -40 -15 -26 17 10 35 24 40 32 7 9 49 14
151 17 l141 3 7 -60 c3 -33 6 -110 6 -171 l0 -110 -42 -43 -42 -43 -106 2
-105 2 110 6 110 6 -132 2 -132 2 -4 38 c-3 34 -4 33 -5 -10 -2 -45 0 -48 23
-48 21 0 25 -5 25 -30 l0 -30 131 0 c127 0 132 1 170 28 l39 27 0 178 c0 172
-1 177 -21 177 -16 0 -20 6 -18 28 1 15 1 37 1 50 l-2 24 -142 -4 -143 -3 -45
-44z m336 -376 c-4 -28 -39 -55 -70 -54 -26 0 -28 2 -11 9 11 5 34 20 50 34
36 30 34 29 31 11z"/>
<path d="M2670 2903 c0 -5 -10 -9 -22 -9 -160 -1 -161 -1 -211 -47 l-47 -44 0
-71 c0 -74 17 -112 49 -112 11 0 10 4 -4 20 -15 16 -15 22 -5 35 8 10 9 15 1
15 -6 0 -11 5 -11 11 0 5 5 7 10 4 6 -3 10 1 10 9 0 9 -4 16 -8 16 -5 0 -9 16
-10 35 -3 69 70 107 197 103 65 -2 74 -5 104 -34 19 -19 33 -43 35 -61 l2 -28
-119 2 c-104 2 -122 0 -143 -16 l-23 -19 20 -28 c12 -15 29 -28 38 -30 26 -4
20 9 -14 28 -17 10 -27 22 -24 28 4 6 10 8 15 5 5 -3 11 -2 13 2 3 5 58 8 122
7 110 -1 117 0 125 20 8 20 8 20 16 2 5 -13 3 -21 -4 -24 -7 -2 -12 -9 -12
-15 0 -9 -34 -11 -121 -9 -84 2 -119 0 -114 -7 4 -7 48 -11 116 -11 l109 0 0
-25 c0 -22 4 -25 34 -25 l33 0 -5 53 c-3 31 -12 60 -23 73 -11 11 -19 29 -19
40 0 10 -24 40 -55 67 -30 27 -55 44 -55 40z"/>
<path d="M3528 2892 c-18 -2 -43 -21 -70 -52 -32 -35 -53 -50 -80 -55 -32 -6
-37 -4 -41 14 -4 19 -5 19 -3 -1 1 -18 8 -24 36 -28 42 -7 85 17 115 64 14 21
30 32 50 34 28 3 29 3 11 -11 -19 -14 -19 -15 2 -26 18 -9 23 -7 41 18 12 16
21 33 21 38 0 9 -36 11 -82 5z"/>
<path d="M694 2868 l-19 -23 23 19 c21 18 27 26 19 26 -2 0 -12 -10 -23 -22z"/>
<path d="M2883 2854 l-43 -36 0 -82 c0 -70 3 -86 20 -101 11 -10 20 -23 20
-29 0 -7 20 -29 45 -50 l45 -37 120 -2 120 -2 0 43 c0 35 -3 42 -20 42 -17 0
-20 7 -20 40 l0 40 -104 0 c-101 0 -105 1 -125 26 -15 18 -21 22 -21 11 0 -17
26 -47 40 -47 5 0 7 -9 5 -20 -2 -12 0 -18 6 -15 5 4 7 10 4 15 -6 9 116 11
153 3 16 -4 20 -9 13 -16 -6 -6 -5 -14 5 -24 8 -8 14 -19 14 -24 0 -5 -52 -9
-117 -9 l-118 0 -36 40 c-43 47 -38 52 11 10 40 -33 47 -36 47 -16 0 8 -15 23
-34 33 -18 9 -33 21 -33 26 0 4 -4 6 -9 3 -5 -4 -11 0 -14 6 -5 17 3 39 12 33
4 -2 8 2 8 10 0 8 -3 14 -6 13 -20 -2 -22 4 -5 16 17 13 17 17 5 38 -7 13 -10
20 -6 16 4 -4 19 7 32 23 15 17 32 28 40 25 8 -3 12 -2 9 3 -7 10 162 15 187
5 9 -3 14 -10 11 -15 -3 -5 -9 -7 -14 -4 -5 3 -12 1 -15 -5 -4 -6 -3 -10 2 -9
16 4 43 -13 43 -27 0 -10 -24 -14 -102 -16 l-103 -3 -3 -36 c-4 -48 22 -72 44
-41 14 20 24 22 115 22 l99 0 0 40 c0 33 -3 40 -20 40 -17 0 -20 7 -20 40 l0
40 -122 0 -123 0 -42 -36z m117 -103 c0 -6 -9 -9 -19 -8 -11 0 -17 5 -15 9 7
11 34 10 34 -1z"/>
<path d="M718 2834 l-48 -45 27 -23 27 -24 52 47 52 46 -21 23 c-11 12 -25 22
-31 22 -6 0 -32 -21 -58 -46z m34 -25 c-18 -17 -36 -28 -40 -24 -8 7 47 55 63
55 6 0 -5 -14 -23 -31z"/>
<path d="M2586 2853 c-4 -5 -22 -8 -38 -8 -17 0 -33 -6 -35 -12 -3 -7 0 -13 7
-13 6 0 8 4 5 10 -4 6 15 8 54 3 46 -4 61 -3 61 7 0 8 -8 10 -26 6 -17 -5 -23
-3 -19 4 7 12 2 13 -9 3z"/>
<path d="M2210 2840 c0 -5 5 -10 11 -10 5 0 7 5 4 10 -3 6 -8 10 -11 10 -2 0
-4 -4 -4 -10z"/>
<path d="M3056 2838 c3 -4 12 -8 20 -8 8 0 14 4 14 8 0 4 -9 8 -19 8 -11 0
-17 -4 -15 -8z"/>
<path d="M2145 2829 c-3 -4 2 -6 10 -5 21 3 28 13 10 13 -9 0 -18 -4 -20 -8z"/>
<path d="M2650 2830 c0 -5 5 -10 10 -10 6 0 10 5 10 10 0 6 -4 10 -10 10 -5 0
-10 -4 -10 -10z"/>
<path d="M3005 2830 c-3 -6 1 -7 9 -4 18 7 21 14 7 14 -6 0 -13 -4 -16 -10z"/>
<path d="M1008 2792 c3 -9 -2 -12 -14 -10 -16 2 -20 -5 -25 -47 -3 -27 -5 -51
-5 -52 1 -1 32 -3 68 -5 82 -3 111 15 101 66 -9 44 -22 53 -80 57 -39 3 -49 1
-45 -9z m22 -46 c0 -2 -7 -7 -16 -10 -8 -3 -12 -2 -9 4 6 10 25 14 25 6z m90
-36 c-8 -16 -21 -20 -60 -20 -28 0 -50 3 -50 6 0 17 39 33 78 34 40 0 42 -1
32 -20z"/>
<path d="M1500 2733 l0 -78 44 -48 45 -48 88 3 88 3 3 28 3 28 -20 -20 c-28
-28 -151 -31 -172 -4 -12 15 -12 16 1 8 8 -4 -5 9 -29 30 l-43 39 5 63 c2 35
1 66 -4 69 -5 3 -9 -30 -9 -73z"/>
<path d="M1700 2803 c-35 -2 -70 -9 -77 -15 -19 -15 -16 -72 5 -91 36 -33 152
-21 152 16 0 5 -8 3 -18 -6 -12 -11 -36 -17 -67 -17 -47 0 -48 0 -30 20 13 14
31 20 62 20 l43 0 0 40 c0 22 -1 39 -2 38 -2 -1 -32 -3 -68 -5z m-17 -50 c-7
-2 -21 -2 -30 0 -10 3 -4 5 12 5 17 0 24 -2 18 -5z"/>
<path d="M1990 2801 c0 -6 4 -13 10 -16 6 -3 7 1 4 9 -7 18 -14 21 -14 7z"/>
<path d="M2038 2803 c-3 -4 -4 -30 -3 -56 2 -64 38 -98 93 -92 64 8 71 11 97
33 l25 22 -20 20 c-11 11 -20 29 -20 40 0 19 -5 21 -72 18 l-73 -3 -3 -36 c-4
-49 19 -68 47 -40 23 23 111 31 111 10 0 -22 -35 -38 -83 -39 -74 0 -89 12
-86 70 3 47 -4 71 -13 53z m70 -57 c-7 -8 -16 -12 -21 -9 -11 7 2 23 19 23 12
0 12 -2 2 -14z"/>
<path d="M2436 2793 c-6 -14 -5 -15 5 -6 7 7 10 15 7 18 -3 3 -9 -2 -12 -12z"/>
<path d="M2487 2803 c-10 -10 -8 -20 6 -35 10 -9 39 -12 105 -10 51 2 92 6 92
10 0 4 -39 6 -86 4 -100 -4 -122 1 -104 23 12 15 0 22 -13 8z"/>
<path d="M2600 2799 l-85 -5 82 -2 c45 -1 88 -5 97 -8 9 -3 16 -2 16 4 0 15
-19 17 -110 11z"/>
<path d="M3538 2789 c-34 -25 -34 -31 -3 -65 l26 -28 44 44 c25 24 45 50 45
57 0 21 -81 16 -112 -8z m47 -30 c-8 -12 -35 -12 -35 0 0 11 22 20 33 14 4 -2
5 -9 2 -14z"/>
<path d="M2920 2789 c0 -5 5 -7 10 -4 6 3 10 8 10 11 0 2 -4 4 -10 4 -5 0 -10
-5 -10 -11z"/>
<path d="M2241 2764 c0 -11 3 -14 6 -6 3 7 2 16 -1 19 -3 4 -6 -2 -5 -13z"/>
<path d="M3481 2766 c-9 -11 -2 -25 34 -67 36 -42 42 -55 31 -61 -20 -11 -61
9 -76 38 -7 13 -17 21 -22 18 -4 -3 -8 2 -8 10 0 8 -5 18 -10 21 -20 13 -70
24 -70 16 0 -5 12 -11 28 -14 17 -4 46 -29 77 -66 l49 -59 25 19 c19 15 27 17
38 7 13 -10 12 -13 -4 -19 -13 -6 -10 -8 15 -8 18 -1 32 4 32 11 0 6 -29 39
-65 73 -47 44 -64 67 -59 78 8 21 1 22 -15 3z"/>
<path d="M3867 2752 c-15 -15 -27 -33 -27 -38 0 -12 -32 -44 -44 -44 -4 0 -4
6 0 13 4 6 -2 4 -14 -7 -12 -10 -19 -22 -17 -26 3 -5 -9 -20 -27 -35 l-31 -26
26 -26 26 -26 43 38 c24 21 67 61 96 88 l54 50 -31 24 c-17 14 -29 29 -26 34
11 17 -1 9 -28 -19z m-25 -102 c-39 -38 -77 -70 -84 -70 -7 0 19 31 57 70 39
38 76 70 84 70 8 0 -17 -31 -57 -70z"/>
<path d="M3785 2760 c-3 -6 1 -7 9 -4 18 7 21 14 7 14 -6 0 -13 -4 -16 -10z"/>
<path d="M3750 2750 c0 -5 -20 -24 -44 -43 l-44 -33 29 -16 c20 -12 31 -13 35
-6 4 6 3 8 -3 5 -6 -4 -16 -1 -22 7 -8 10 -2 18 26 37 36 23 56 59 34 59 -6 0
-11 -4 -11 -10z"/>
<path d="M3334 2727 c-18 -21 -24 -56 -8 -50 7 3 13 8 12 11 -2 20 3 32 12 27
6 -3 7 1 4 9 -7 19 -6 19 -20 3z"/>
<path d="M730 2701 c5 -19 4 -34 -3 -42 -10 -10 -9 -10 5 0 10 7 15 18 11 25
-3 6 3 3 14 -7 16 -14 22 -15 25 -5 4 11 -41 58 -55 58 -3 0 -2 -13 3 -29z"/>
<path d="M690 2681 c0 -6 4 -13 10 -16 6 -3 7 1 4 9 -7 18 -14 21 -14 7z"/>
<path d="M2430 2662 c0 -9 43 -42 55 -42 15 0 2 18 -25 33 -16 10 -30 14 -30
9z"/>
<path d="M2564 2662 c7 -6 169 -3 175 4 3 3 -36 4 -87 3 -51 -1 -91 -4 -88 -7z"/>
<path d="M3660 2652 c0 -11 38 -42 52 -42 6 0 1 11 -12 25 -23 25 -40 32 -40
17z"/>
<path d="M2214 2638 c-4 -7 -3 -8 4 -4 6 4 22 0 36 -9 15 -10 27 -12 30 -6 8
12 -10 24 -23 16 -5 -3 -12 -1 -16 5 -8 13 -22 13 -31 -2z"/>
<path d="M2096 2631 c-3 -5 3 -11 15 -14 16 -4 18 -3 8 9 -13 16 -16 17 -23 5z"/>
<path d="M2166 2632 c-2 -4 4 -9 15 -9 11 -1 17 2 14 8 -7 11 -22 12 -29 1z"/>
<path d="M2524 2633 c3 -4 23 -8 43 -10 49 -5 39 5 -11 11 -21 3 -35 2 -32 -1z"/>
<path d="M2717 2634 c-6 -6 16 -34 27 -34 3 0 6 9 6 20 0 19 -20 27 -33 14z"/>
<path d="M2985 2629 c-6 -8 52 -6 61 3 3 4 -8 6 -25 6 -18 -1 -34 -4 -36 -9z"/>
<path d="M2618 2623 c7 -3 16 -2 19 1 4 3 -2 6 -13 5 -11 0 -14 -3 -6 -6z"/>
<path d="M3088 2623 c7 -3 16 -2 19 1 4 3 -2 6 -13 5 -11 0 -14 -3 -6 -6z"/>
<path d="M2495 2610 c-3 -5 1 -10 10 -10 9 0 13 5 10 10 -3 6 -8 10 -10 10 -2
0 -7 -4 -10 -10z"/>
<path d="M2450 2599 c0 -8 18 -28 39 -46 l38 -32 134 -2 134 -1 3 34 3 34
-156 -4 c-139 -4 -158 -3 -175 13 -15 14 -20 15 -20 4z"/>
<path d="M1028 2593 c17 -2 47 -2 65 0 17 2 3 4 -33 4 -36 0 -50 -2 -32 -4z"/>
<path d="M1627 2593 c18 -2 50 -2 70 0 21 2 7 4 -32 4 -38 0 -55 -2 -38 -4z"/>
</g>
</svg>
